<svg xmlns="http://www.w3.org/2000/svg" width="24" height="24" viewBox="0 0 24 24">
  <g id="Icons" transform="translate(7 4)">
    <g id="Outlined" transform="translate(-617 -246)">
      <g id="Action" transform="translate(100 100)">
        <g id="Outlined-_-Action-_-drag_indicator" data-name="Outlined-/-Action-/-drag_indicator" transform="translate(510 142)">
          <g id="Group_3" data-name="Group 3">
            <path id="Path" d="M0,0H24V24H0Z" fill="none" fill-rule="evenodd"/>
            <path id="_-Icon-Color" data-name="🔹-Icon-Color" d="M11,18a2,2,0,1,1-2-2A2.006,2.006,0,0,1,11,18ZM9,10a2,2,0,1,0,2,2A2.006,2.006,0,0,0,9,10ZM9,4a2,2,0,1,0,2,2A2.006,2.006,0,0,0,9,4Zm6,4a2,2,0,1,0-2-2A2.006,2.006,0,0,0,15,8Zm0,2a2,2,0,1,0,2,2A2.006,2.006,0,0,0,15,10Zm0,6a2,2,0,1,0,2,2A2.006,2.006,0,0,0,15,16Z" fill="#5a5a5a" fill-rule="evenodd"/>
          </g>
        </g>
      </g>
    </g>
  </g>
</svg>
