<svg width="1053" height="1053" viewBox="0 0 1053 1053" fill="none" xmlns="http://www.w3.org/2000/svg">
<path d="M527.009 945.558C781.355 945.558 987.544 739.37 987.544 485.023C987.544 230.677 781.355 24.4883 527.009 24.4883C272.663 24.4883 66.474 230.677 66.474 485.023C66.474 739.37 272.663 945.558 527.009 945.558Z" fill="#EE8572"/>
<path d="M527.024 796.564C699.308 796.564 838.972 656.9 838.972 484.616C838.972 312.332 699.308 172.668 527.024 172.668C354.74 172.668 215.076 312.332 215.076 484.616C215.076 656.9 354.74 796.564 527.024 796.564Z" fill="#FAFAFA"/>
<path d="M527.5 1027L413 864H642L527.5 1027Z" fill="#EE8572"/>
<path d="M720.421 393.702L677.6 325.351C675.701 322.323 673.064 319.826 669.937 318.094C666.81 316.363 663.294 315.453 659.72 315.451H393.16C389.585 315.453 386.07 316.363 382.943 318.094C379.816 319.826 377.179 322.323 375.28 325.351L332.46 393.702C310.36 429.002 329.953 478.089 371.26 483.702C374.257 484.099 377.276 484.298 380.299 484.296C389.497 484.299 398.592 482.353 406.984 478.588C415.377 474.823 422.877 469.323 428.991 462.451C435.108 469.32 442.608 474.817 451 478.581C459.392 482.345 468.486 484.291 477.683 484.291C486.881 484.291 495.975 482.345 504.367 478.581C512.759 474.817 520.259 469.32 526.376 462.451C532.493 469.32 539.993 474.817 548.385 478.581C556.777 482.345 565.871 484.291 575.068 484.291C584.266 484.291 593.36 482.345 601.752 478.581C610.144 474.817 617.644 469.32 623.761 462.451C629.884 469.312 637.387 474.803 645.777 478.566C654.168 482.33 663.258 484.28 672.454 484.29C675.477 484.294 678.497 484.095 681.493 483.696C722.928 478.151 742.59 429.067 720.421 393.702ZM672.586 505.471C666.022 505.402 659.489 504.56 653.122 502.964V568.811H399.76V502.964C393.387 504.528 386.858 505.369 380.296 505.471C376.324 505.472 372.357 505.208 368.42 504.679C364.764 504.129 361.149 503.336 357.599 502.304V632.151C357.596 634.925 358.14 637.671 359.2 640.234C360.26 642.797 361.815 645.126 363.776 647.087C365.737 649.048 368.066 650.603 370.629 651.663C373.192 652.723 375.939 653.267 378.712 653.264H674.301C677.074 653.267 679.821 652.723 682.384 651.663C684.947 650.603 687.276 649.048 689.237 647.087C691.198 645.126 692.754 642.797 693.814 640.234C694.874 637.672 695.418 634.925 695.415 632.151V502.304C691.879 503.392 688.26 504.186 684.594 504.679C680.613 505.206 676.602 505.47 672.586 505.471Z" fill="#EE8572"/>
</svg>
